<svg xmlns="http://www.w3.org/2000/svg" viewBox="0 0 1200 630" fill="none">
  <defs>
    <radialGradient id="g" cx="50%" cy="55%" r="60%">
      <stop offset="0%" stop-color="#FF7A1A" stop-opacity="0.35"/>
      <stop offset="40%" stop-color="#FF7A1A" stop-opacity="0.08"/>
      <stop offset="100%" stop-color="#0A0A0B" stop-opacity="0"/>
    </radialGradient>
    <linearGradient id="text" x1="0" x2="0" y1="0" y2="1">
      <stop offset="0%" stop-color="#F2F2F3"/>
      <stop offset="100%" stop-color="#6E6E75"/>
    </linearGradient>
  </defs>
  <rect width="1200" height="630" fill="#0A0A0B"/>
  <rect width="1200" height="630" fill="url(#g)"/>
  <g stroke="#F2F2F3" stroke-width="0.6" opacity="0.05">
    <line x1="0" y1="80" x2="1200" y2="80"/>
    <line x1="0" y1="160" x2="1200" y2="160"/>
    <line x1="0" y1="240" x2="1200" y2="240"/>
    <line x1="0" y1="320" x2="1200" y2="320"/>
    <line x1="0" y1="400" x2="1200" y2="400"/>
    <line x1="0" y1="480" x2="1200" y2="480"/>
    <line x1="0" y1="560" x2="1200" y2="560"/>
    <line x1="100" y1="0" x2="100" y2="630"/>
    <line x1="200" y1="0" x2="200" y2="630"/>
    <line x1="300" y1="0" x2="300" y2="630"/>
    <line x1="400" y1="0" x2="400" y2="630"/>
    <line x1="500" y1="0" x2="500" y2="630"/>
    <line x1="600" y1="0" x2="600" y2="630"/>
    <line x1="700" y1="0" x2="700" y2="630"/>
    <line x1="800" y1="0" x2="800" y2="630"/>
    <line x1="900" y1="0" x2="900" y2="630"/>
    <line x1="1000" y1="0" x2="1000" y2="630"/>
    <line x1="1100" y1="0" x2="1100" y2="630"/>
  </g>
  <!-- Mark + wordmark -->
  <g transform="translate(80, 80)">
    <rect width="80" height="80" rx="16" fill="#0F0F11" stroke="#F2F2F3" stroke-opacity="0.08"/>
    <g stroke="#F2F2F3" stroke-width="2" stroke-linecap="square" fill="none" transform="translate(12,12)">
      <path d="M8 32 V20 H20"/>
      <path d="M8 36 V48 H20"/>
      <path d="M36 48 H48 V36"/>
    </g>
    <circle cx="55" cy="24" r="5" fill="#FF7A1A"/>
  </g>
  <text x="180" y="138" font-family="Geist, Inter, sans-serif" font-size="38" font-weight="700" fill="#F2F2F3" letter-spacing="-0.02em">Pickforge</text>
  <!-- Tagline -->
  <text x="80" y="350" font-family="Geist, Inter, sans-serif" font-size="68" font-weight="700" fill="url(#text)" letter-spacing="-0.025em">A product forge for AI,</text>
  <text x="80" y="430" font-family="Geist, Inter, sans-serif" font-size="68" font-weight="700" fill="url(#text)" letter-spacing="-0.025em">mobile, and developer tools.</text>
  <!-- Sub -->
  <text x="80" y="490" font-family="Geist Mono, JetBrains Mono, monospace" font-size="20" fill="#6E6E75" letter-spacing="0.18em">LOCAL-FIRST · OPEN SOURCE · BUILT FOR DEVS</text>
  <!-- URL -->
  <text x="80" y="565" font-family="Geist Mono, JetBrains Mono, monospace" font-size="20" fill="#FF7A1A">pickforge.dev</text>
</svg>
